#N canvas 422 276 609 588 10;
#X declare -stdpath Fraise;
#X obj 13 8 declare -stdpath Fraise;
#X obj 13 31 pied/pied 0 12346;
#X obj 21 272 * 1023;
#X obj 21 249 clip -1 1;
#X obj 21 294 i;
#X msg 21 208 0;
#X obj 24 230 hsl 128 15 -1 1 0 0 empty empty empty -2 -8 0 10 -4034
-1 -1 0 1;
#X obj 162 274 * 1023;
#X obj 162 251 clip -1 1;
#X obj 162 296 i;
#X msg 162 208 0;
#X obj 165 230 hsl 128 15 -1 1 0 0 empty empty empty -2 -8 0 10 -4034
-1 -1 0 1;
#X msg 21 316 c 120 c 4 i \$1;
#X msg 162 318 c 121 c 4 i \$1;
#X obj 178 131 print;
#X obj 177 104 spigot;
#X obj 201 83 tgl 15 0 empty empty empty 17 7 0 10 -262144 -1 -1 0
1;
#X obj 177 7 fruit/fruit 1 Echo1 1 8X2Afw;
#X obj 177 63 fruit/receive Echo1;
#X obj 361 132 print;
#X obj 360 105 spigot;
#X obj 384 84 tgl 15 0 empty empty empty 17 7 0 10 -262144 -1 -1 0
1;
#X obj 21 347 fruit/send2 Echo1;
#X obj 323 272 * 1023;
#X obj 323 249 clip -1 1;
#X obj 323 294 i;
#X msg 323 207 0;
#X obj 326 229 hsl 128 15 -1 1 0 0 empty empty empty -2 -8 0 10 -4034
-1 -1 0 1;
#X obj 462 274 * 1023;
#X obj 462 251 clip -1 1;
#X obj 462 296 i;
#X msg 462 208 0;
#X obj 465 229 hsl 128 15 -1 1 0 0 empty empty empty -2 -8 0 10 -204786
-1 -1 0 1;
#X msg 323 316 c 120 c 4 i \$1;
#X msg 462 318 c 121 c 4 i \$1;
#X obj 360 8 fruit/fruit 1 Echo2 2 8X2Afw;
#X obj 360 64 fruit/receive Echo2;
#X obj 323 346 fruit/send2 Echo2;
#X obj 22 459 * 1023;
#X obj 22 481 i;
#X msg 22 394 0;
#X obj 25 416 hsl 128 15 -1 1 0 0 empty empty empty -2 -8 0 10 -257985
-1 -1 0 1;
#X obj 163 461 * 1023;
#X obj 163 483 i;
#X msg 163 394 0;
#X obj 166 416 hsl 128 15 -1 1 0 0 empty empty empty -2 -8 0 10 -257985
-1 -1 0 1;
#X msg 22 503 c 120 c 4 i \$1;
#X msg 163 505 c 121 c 4 i \$1;
#X obj 22 533 fruit/send2 Echo1;
#X obj 324 467 * 1023;
#X obj 324 489 i;
#X msg 324 402 0;
#X obj 327 424 hsl 128 15 -1 1 0 0 empty empty empty -2 -8 0 10 -257985
-1 -1 0 1;
#X obj 465 470 * 1023;
#X obj 465 492 i;
#X msg 465 403 0;
#X obj 468 425 hsl 128 15 -1 1 0 0 empty empty empty -2 -8 0 10 -257985
-1 -1 0 1;
#X msg 324 511 c 120 c 4 i \$1;
#X msg 465 514 c 121 c 4 i \$1;
#X obj 324 542 fruit/send2 Echo2;
#X msg 323 164 STOP;
#X obj 22 436 clip 0 1;
#X obj 163 438 clip 0 1;
#X obj 324 444 clip 0 1;
#X obj 465 447 clip 0 1;
#X connect 2 0 4 0;
#X connect 3 0 2 0;
#X connect 4 0 12 0;
#X connect 5 0 6 0;
#X connect 6 0 3 0;
#X connect 7 0 9 0;
#X connect 8 0 7 0;
#X connect 9 0 13 0;
#X connect 10 0 11 0;
#X connect 11 0 8 0;
#X connect 12 0 22 0;
#X connect 13 0 22 0;
#X connect 15 0 14 0;
#X connect 16 0 15 1;
#X connect 18 0 15 0;
#X connect 20 0 19 0;
#X connect 21 0 20 1;
#X connect 23 0 25 0;
#X connect 24 0 23 0;
#X connect 25 0 33 0;
#X connect 26 0 27 0;
#X connect 27 0 24 0;
#X connect 28 0 30 0;
#X connect 29 0 28 0;
#X connect 30 0 34 0;
#X connect 31 0 32 0;
#X connect 32 0 29 0;
#X connect 33 0 37 0;
#X connect 34 0 37 0;
#X connect 36 0 20 0;
#X connect 38 0 39 0;
#X connect 39 0 46 0;
#X connect 40 0 41 0;
#X connect 41 0 61 0;
#X connect 42 0 43 0;
#X connect 43 0 47 0;
#X connect 44 0 45 0;
#X connect 45 0 62 0;
#X connect 46 0 48 0;
#X connect 47 0 48 0;
#X connect 49 0 50 0;
#X connect 50 0 57 0;
#X connect 51 0 52 0;
#X connect 52 0 63 0;
#X connect 53 0 54 0;
#X connect 54 0 58 0;
#X connect 55 0 56 0;
#X connect 56 0 64 0;
#X connect 57 0 59 0;
#X connect 58 0 59 0;
#X connect 60 0 31 0;
#X connect 60 0 26 0;
#X connect 60 0 10 0;
#X connect 60 0 5 0;
#X connect 61 0 38 0;
#X connect 62 0 42 0;
#X connect 63 0 49 0;
#X connect 64 0 53 0;
#X coords 0 0 0.00203252 0.00161812 280 45 0;
