#N canvas 671 107 450 177 10;
#X declare -stdpath Fraise;
#X declare -lib zexy -path zexy -path ggee;
#N canvas 73 197 617 453 seq-automat 1;
#X obj 125 98 seq/main conduite;
#X obj 54 314 chenille Haut 1 2 3 4;
#X obj 206 314 chenille Bas 5 6;
#X obj 345 315 chenille HautBas 1 2 3 4 5 6;
#X obj 62 119 bng 15 250 50 0 conduite-RESET empty RESET 17 7 0 10
-262144 -1 -1;
#X obj 53 363 randome Haut 1 2 3 4;
#X obj 208 359 randome Bas 5 6;
#X msg 79 231 0 \$1;
#X obj 79 252 s motorSet;
#X obj 263 272 s motorSet;
#X msg 263 251 1 \$1;
#X obj 390 252 s motorSet;
#X msg 390 231 2 \$1;
#X obj 236 231 sel 0;
#X obj 79 210 seq/ramp conduite motor1;
#X obj 236 209 seq/ramp conduite motor2;
#X obj 390 210 seq/ramp conduite motor3;
#X obj 125 37 loadbang;
#X obj 125 58 del 2000;
#X connect 7 0 8 0;
#X connect 10 0 9 0;
#X connect 12 0 11 0;
#X connect 13 1 10 0;
#X connect 14 0 7 0;
#X connect 15 0 13 0;
#X connect 16 0 12 0;
#X connect 17 0 18 0;
#X connect 18 0 0 0;
#X restore 34 102 pd seq-automat;
#N canvas 161 166 1204 577 Fraise 0;
#X obj 13 8 declare -stdpath Fraise;
#X obj 13 31 pied/pied 0 12346;
#X obj 21 272 * 1023;
#X obj 21 249 clip -1 1;
#X obj 21 294 i;
#X msg 21 208 0;
#X obj 24 230 hsl 128 15 -1 1 0 0 empty empty empty -2 -8 0 10 -4034
-1 -1 9366 1;
#X obj 162 274 * 1023;
#X obj 162 251 clip -1 1;
#X obj 162 296 i;
#X msg 162 208 0;
#X obj 165 230 hsl 128 15 -1 1 0 0 empty empty empty -2 -8 0 10 -4034
-1 -1 11430 1;
#X msg 21 316 c 120 c 4 i \$1;
#X msg 162 318 c 121 c 4 i \$1;
#X obj 178 131 print;
#X obj 177 104 spigot;
#X obj 201 83 tgl 15 0 empty empty empty 17 7 0 10 -262144 -1 -1 0
1;
#X obj 177 7 fruit/fruit 1 Echo1 1 8X2Afw;
#X obj 177 63 fruit/receive Echo1;
#X obj 361 132 print;
#X obj 360 105 spigot;
#X obj 384 84 tgl 15 0 empty empty empty 17 7 0 10 -262144 -1 -1 0
1;
#X obj 21 347 fruit/send2 Echo1;
#X obj 323 272 * 1023;
#X obj 323 249 clip -1 1;
#X obj 323 294 i;
#X msg 323 207 0;
#X obj 326 229 hsl 128 15 -1 1 0 0 empty empty empty -2 -8 0 10 -4034
-1 -1 9165 1;
#X obj 462 274 * 1023;
#X obj 462 251 clip -1 1;
#X obj 462 296 i;
#X msg 462 208 0;
#X obj 465 229 hsl 128 15 -1 1 0 0 empty empty empty -2 -8 0 10 -204786
-1 -1 0 1;
#X msg 323 316 c 120 c 4 i \$1;
#X msg 462 318 c 121 c 4 i \$1;
#X obj 360 8 fruit/fruit 1 Echo2 2 8X2Afw;
#X obj 360 64 fruit/receive Echo2;
#X obj 323 346 fruit/send2 Echo2;
#X obj 22 459 * 1023;
#X obj 22 481 i;
#X msg 22 394 0;
#X obj 25 416 hsl 128 15 -1 1 0 0 empty empty empty -2 -8 0 10 -257985
-1 -1 0 1;
#X obj 163 461 * 1023;
#X obj 163 483 i;
#X msg 163 394 0;
#X obj 166 416 hsl 128 15 -1 1 0 0 empty empty empty -2 -8 0 10 -257985
-1 -1 0 1;
#X obj 22 533 fruit/send2 Echo1;
#X obj 324 467 * 1023;
#X obj 324 489 i;
#X msg 324 402 0;
#X obj 327 424 hsl 128 15 -1 1 0 0 empty empty empty -2 -8 0 10 -257985
-1 -1 0 1;
#X obj 465 470 * 1023;
#X obj 465 492 i;
#X msg 465 403 0;
#X obj 468 425 hsl 128 15 -1 1 0 0 empty empty empty -2 -8 0 10 -257985
-1 -1 0 1;
#X obj 324 542 fruit/send2 Echo2;
#X msg 323 164 STOP;
#X obj 22 436 clip 0 1;
#X obj 163 438 clip 0 1;
#X obj 324 444 clip 0 1;
#X obj 465 447 clip 0 1;
#X msg 22 503 c 150 c 4 i \$1;
#X msg 163 505 c 151 c 4 i \$1;
#X msg 324 511 c 150 c 4 i \$1;
#X msg 465 514 c 151 c 4 i \$1;
#X obj 85 146 r motorSet;
#X obj 85 167 route 0 1 2;
#X text 928 389 mode MP3;
#X obj 682 258 fruit/send2 Echo1;
#X obj 853 419 fruit/send2 Echo2;
#X msg 707 234 c 29 c 0;
#X text 768 235 mode DMX;
#X msg 874 390 c 29 c 0;
#X msg 682 207 c 30 i \$1 c \$2;
#X obj 682 62 r dmxlampSet;
#X obj 682 83 unpack f f, f 38;
#X obj 682 104 route 1 2 3 4 5 6, f 34;
#X msg 682 125 1;
#X msg 715 125 2;
#X msg 750 125 3;
#X msg 783 125 4;
#X msg 816 125 5;
#X msg 849 125 6;
#X obj 907 105 * 255;
#X obj 907 126 clip 0 255;
#X obj 682 154 pack f f, f 38;
#X obj 983 146 pack f f;
#X msg 983 167 \$2 \$1;
#X obj 983 9 vsl 15 128 0 255 0 0 empty empty empty 0 -9 0 10 -262144
-1 -1 0 1;
#X floatatom 1029 123 5 0 0 0 - - -;
#X obj 657 340 spigot;
#X obj 657 383 vsl 15 80 0 1 0 0 empty empty empty 0 -9 0 10 -257985
-1 -1 0 1;
#X obj 657 317 r dmxlampSet;
#X obj 678 383 vsl 15 80 0 1 0 0 empty empty empty 0 -9 0 10 -257985
-1 -1 0 1;
#X obj 699 383 vsl 15 80 0 1 0 0 empty empty empty 0 -9 0 10 -257985
-1 -1 0 1;
#X obj 720 383 vsl 15 80 0 1 0 0 empty empty empty 0 -9 0 10 -257985
-1 -1 0 1;
#X obj 741 383 vsl 15 80 0 1 0 0 empty empty empty 0 -9 0 10 -257985
-1 -1 0 1;
#X obj 762 383 vsl 15 80 0 1 0 0 empty empty empty 0 -9 0 10 -257985
-1 -1 0 1;
#X obj 706 340 tgl 15 0 empty empty empty 17 7 0 10 -262144 -1 -1 0
1;
#X obj 657 361 route 1 2 3 4 5 6, f 21;
#X connect 2 0 4 0;
#X connect 3 0 2 0;
#X connect 4 0 12 0;
#X connect 5 0 6 0;
#X connect 6 0 3 0;
#X connect 7 0 9 0;
#X connect 8 0 7 0;
#X connect 9 0 13 0;
#X connect 10 0 11 0;
#X connect 11 0 8 0;
#X connect 12 0 22 0;
#X connect 13 0 22 0;
#X connect 15 0 14 0;
#X connect 16 0 15 1;
#X connect 18 0 15 0;
#X connect 20 0 19 0;
#X connect 21 0 20 1;
#X connect 23 0 25 0;
#X connect 24 0 23 0;
#X connect 25 0 33 0;
#X connect 26 0 27 0;
#X connect 27 0 24 0;
#X connect 28 0 30 0;
#X connect 29 0 28 0;
#X connect 30 0 34 0;
#X connect 31 0 32 0;
#X connect 32 0 29 0;
#X connect 33 0 37 0;
#X connect 34 0 37 0;
#X connect 36 0 20 0;
#X connect 38 0 39 0;
#X connect 39 0 61 0;
#X connect 40 0 41 0;
#X connect 41 0 57 0;
#X connect 42 0 43 0;
#X connect 43 0 62 0;
#X connect 44 0 45 0;
#X connect 45 0 58 0;
#X connect 47 0 48 0;
#X connect 48 0 63 0;
#X connect 49 0 50 0;
#X connect 50 0 59 0;
#X connect 51 0 52 0;
#X connect 52 0 64 0;
#X connect 53 0 54 0;
#X connect 54 0 60 0;
#X connect 56 0 31 0;
#X connect 56 0 26 0;
#X connect 56 0 10 0;
#X connect 56 0 5 0;
#X connect 57 0 38 0;
#X connect 58 0 42 0;
#X connect 59 0 47 0;
#X connect 60 0 51 0;
#X connect 61 0 46 0;
#X connect 62 0 46 0;
#X connect 63 0 55 0;
#X connect 64 0 55 0;
#X connect 65 0 66 0;
#X connect 66 0 6 0;
#X connect 66 1 11 0;
#X connect 66 2 27 0;
#X connect 70 0 68 0;
#X connect 72 0 69 0;
#X connect 73 0 68 0;
#X connect 74 0 75 0;
#X connect 75 0 76 0;
#X connect 75 1 83 0;
#X connect 76 0 77 0;
#X connect 76 1 78 0;
#X connect 76 2 79 0;
#X connect 76 3 80 0;
#X connect 76 4 81 0;
#X connect 76 5 82 0;
#X connect 77 0 85 0;
#X connect 78 0 85 0;
#X connect 79 0 85 0;
#X connect 80 0 85 0;
#X connect 81 0 85 0;
#X connect 82 0 85 0;
#X connect 83 0 84 0;
#X connect 84 0 85 1;
#X connect 85 0 73 0;
#X connect 86 0 87 0;
#X connect 87 0 73 0;
#X connect 88 0 86 0;
#X connect 89 0 86 1;
#X connect 90 0 99 0;
#X connect 92 0 90 0;
#X connect 98 0 90 1;
#X connect 99 0 91 0;
#X connect 99 1 93 0;
#X connect 99 2 94 0;
#X connect 99 3 95 0;
#X connect 99 4 96 0;
#X connect 99 5 97 0;
#X restore 32 26 pd Fraise;
#X obj 35 62 ../reconditionnement/reconditionnement;
#X obj 167 23 declare -lib zexy -path zexy -path ggee;
#X coords 0 0 0.00203252 0.00161812 280 45 0;
