#N canvas 1 81 726 569 10;
#X obj 35 18 seq/ramp conduite chenille\$1_Vitesse;
#X obj 434 272 seq/ramp conduite chenille\$1_Max;
#X obj 462 299 seq/ramp conduite chenille\$1_Min;
#X obj 35 39 t f f, f 19;
#X obj 35 60 != 0;
#X obj 35 102 metro 50, f 14;
#X obj 35 123 f, f 19;
#X obj 35 144 / 20;
#X obj 35 165 +;
#X obj 66 165 wrap;
#X obj 434 323 -;
#X obj 462 323 t b f;
#X obj 374 362 *;
#X obj 374 383 +;
#X obj 374 404 clip 0 1;
#X msg 35 188 0 \$1 \, 1 \$1 \, 2 \$1 \, 3 \$1;
#X obj 35 209 unpack f f, f 64;
#X obj 374 257 * 0.25;
#X obj 374 278 +, f 8;
#X obj 374 299 wrap, f 6;
#X obj 374 319 * 6.283;
#X obj 374 340 sin;
#X obj 442 209 seq/ramp conduite chenille\$1_Distance;
#X obj 442 230 * 0.25;
#X obj 35 424 pack f f, f 57;
#X obj 35 457 s dmxlampSet;
#X obj 35 256 sel 0 1 2 3, f 26;
#X obj 35 278 f \$2;
#X obj 73 278 f \$3;
#X obj 111 279 f \$4;
#X obj 149 279 f \$5;
#X obj 35 299 sel 0;
#X obj 73 299 sel 0;
#X obj 111 299 sel 0;
#X obj 149 299 sel 0;
#X obj 204 257 sel 0 1 2 3, f 26;
#X obj 204 300 sel 0;
#X obj 242 300 sel 0;
#X obj 280 300 sel 0;
#X obj 318 300 sel 0;
#X obj 204 279 f \$6;
#X obj 242 279 f \$7;
#X obj 280 280 f \$8;
#X obj 318 280 f \$9;
#X obj 35 231 t f f f, f 57;
#X obj 35 81 change;
#X connect 0 0 3 0;
#X connect 1 0 10 0;
#X connect 2 0 11 0;
#X connect 2 0 13 1;
#X connect 3 0 4 0;
#X connect 3 1 6 1;
#X connect 4 0 45 0;
#X connect 5 0 6 0;
#X connect 6 0 7 0;
#X connect 7 0 8 0;
#X connect 8 0 9 0;
#X connect 8 0 15 0;
#X connect 9 0 8 1;
#X connect 10 0 12 1;
#X connect 11 0 10 0;
#X connect 11 1 10 1;
#X connect 12 0 13 0;
#X connect 13 0 14 0;
#X connect 14 0 24 1;
#X connect 15 0 16 0;
#X connect 16 0 44 0;
#X connect 16 1 18 1;
#X connect 17 0 18 0;
#X connect 18 0 19 0;
#X connect 19 0 20 0;
#X connect 20 0 21 0;
#X connect 21 0 12 0;
#X connect 22 0 23 0;
#X connect 23 0 17 1;
#X connect 24 0 25 0;
#X connect 26 0 27 0;
#X connect 26 1 28 0;
#X connect 26 2 29 0;
#X connect 26 3 30 0;
#X connect 27 0 31 0;
#X connect 28 0 32 0;
#X connect 29 0 33 0;
#X connect 30 0 34 0;
#X connect 31 1 24 0;
#X connect 32 1 24 0;
#X connect 33 1 24 0;
#X connect 34 1 24 0;
#X connect 35 0 40 0;
#X connect 35 1 41 0;
#X connect 35 2 42 0;
#X connect 35 3 43 0;
#X connect 36 1 24 0;
#X connect 37 1 24 0;
#X connect 38 1 24 0;
#X connect 39 1 24 0;
#X connect 40 0 36 0;
#X connect 41 0 37 0;
#X connect 42 0 38 0;
#X connect 43 0 39 0;
#X connect 44 0 26 0;
#X connect 44 1 35 0;
#X connect 44 2 17 0;
#X connect 45 0 5 0;
