#N canvas 46 113 702 630 10;
#X obj 46 49 t f f, f 19;
#X obj 46 70 != 0;
#X obj 46 125 metro 50, f 14;
#X obj 458 468 -;
#X obj 486 468 t b f;
#X obj 385 504 *;
#X obj 385 525 +;
#X obj 385 546 clip 0 1;
#X obj 46 351 unpack f f, f 64;
#X obj 46 566 pack f f, f 57;
#X obj 46 599 s dmxlampSet;
#X obj 46 398 sel 0 1 2 3, f 26;
#X obj 46 420 f \$2;
#X obj 84 420 f \$3;
#X obj 122 421 f \$4;
#X obj 160 421 f \$5;
#X obj 46 441 sel 0;
#X obj 84 441 sel 0;
#X obj 122 441 sel 0;
#X obj 160 441 sel 0;
#X obj 215 399 sel 0 1 2 3, f 26;
#X obj 215 442 sel 0;
#X obj 253 442 sel 0;
#X obj 291 442 sel 0;
#X obj 329 442 sel 0;
#X obj 215 421 f \$6;
#X obj 253 421 f \$7;
#X obj 291 422 f \$8;
#X obj 329 422 f \$9;
#X obj 46 373 t f f f, f 57;
#X obj 46 28 seq/ramp conduite random\$1_Vitesse;
#X obj 412 383 seq/ramp conduite random\$1_Power;
#X obj 458 417 seq/ramp conduite random\$1_Max;
#X obj 486 444 seq/ramp conduite random\$1_Min;
#X obj 157 68 clip 1 100;
#X obj 157 110 /;
#X obj 46 227 random 10000;
#X obj 46 248 / 10000;
#X obj 46 269 pack f 50, f 10;
#X msg 157 89 200 \$1;
#X obj 46 290 line;
#X msg 46 311 0 \$1;
#X obj 145 227 random 10000;
#X obj 145 248 / 10000;
#X obj 145 269 pack f 50, f 10;
#X obj 145 290 line;
#X obj 46 97 change, f 7;
#X obj 259 78 sel 0;
#X msg 259 99 stop;
#X obj 244 225 random 10000;
#X obj 244 246 / 10000;
#X obj 244 267 pack f 50, f 10;
#X obj 244 288 line;
#X obj 343 225 random 10000;
#X obj 343 246 / 10000;
#X obj 343 267 pack f 50, f 10;
#X obj 343 288 line;
#X msg 145 311 1 \$1;
#X msg 244 309 2 \$1;
#X msg 343 309 3 \$1;
#X obj 385 457 pow 1;
#X obj 46 198 t b b b b, f 50;
#X floatatom 13 329 5 0 0 0 - - -;
#X obj 196 601 print;
#X obj 412 402 sel 0;
#X msg 412 426 1;
#X obj 46 155 i;
#X obj 76 146 + 1;
#X obj 76 165 mod 10;
#X obj 46 176 sel 0;
#X obj 157 131 * 20;
#X connect 0 0 1 0;
#X connect 0 1 34 0;
#X connect 1 0 46 0;
#X connect 2 0 66 0;
#X connect 3 0 5 1;
#X connect 4 0 3 0;
#X connect 4 1 3 1;
#X connect 5 0 6 0;
#X connect 6 0 7 0;
#X connect 7 0 9 1;
#X connect 8 0 29 0;
#X connect 8 1 60 0;
#X connect 9 0 10 0;
#X connect 11 0 12 0;
#X connect 11 1 13 0;
#X connect 11 2 14 0;
#X connect 11 3 15 0;
#X connect 12 0 16 0;
#X connect 13 0 17 0;
#X connect 14 0 18 0;
#X connect 15 0 19 0;
#X connect 16 1 9 0;
#X connect 17 1 9 0;
#X connect 18 1 9 0;
#X connect 19 1 9 0;
#X connect 20 0 25 0;
#X connect 20 1 26 0;
#X connect 20 2 27 0;
#X connect 20 3 28 0;
#X connect 21 1 9 0;
#X connect 22 1 9 0;
#X connect 23 1 9 0;
#X connect 24 1 9 0;
#X connect 25 0 21 0;
#X connect 26 0 22 0;
#X connect 27 0 23 0;
#X connect 28 0 24 0;
#X connect 29 0 11 0;
#X connect 29 1 20 0;
#X connect 30 0 0 0;
#X connect 31 0 64 0;
#X connect 32 0 3 0;
#X connect 33 0 4 0;
#X connect 33 0 6 1;
#X connect 34 0 39 0;
#X connect 35 0 2 1;
#X connect 35 0 70 0;
#X connect 36 0 37 0;
#X connect 37 0 38 0;
#X connect 38 0 40 0;
#X connect 39 0 35 0;
#X connect 40 0 41 0;
#X connect 40 0 62 0;
#X connect 41 0 8 0;
#X connect 42 0 43 0;
#X connect 43 0 44 0;
#X connect 44 0 45 0;
#X connect 45 0 57 0;
#X connect 46 0 2 0;
#X connect 46 0 47 0;
#X connect 47 0 48 0;
#X connect 48 0 40 0;
#X connect 48 0 56 0;
#X connect 48 0 52 0;
#X connect 48 0 45 0;
#X connect 49 0 50 0;
#X connect 50 0 51 0;
#X connect 51 0 52 0;
#X connect 52 0 58 0;
#X connect 53 0 54 0;
#X connect 54 0 55 0;
#X connect 55 0 56 0;
#X connect 56 0 59 0;
#X connect 57 0 8 0;
#X connect 58 0 8 0;
#X connect 59 0 8 0;
#X connect 60 0 5 0;
#X connect 61 0 36 0;
#X connect 61 1 42 0;
#X connect 61 2 49 0;
#X connect 61 3 53 0;
#X connect 64 0 65 0;
#X connect 64 1 60 1;
#X connect 65 0 60 1;
#X connect 66 0 67 0;
#X connect 66 0 69 0;
#X connect 67 0 68 0;
#X connect 68 0 66 1;
#X connect 69 0 61 0;
#X connect 70 0 38 1;
#X connect 70 0 55 1;
#X connect 70 0 51 1;
#X connect 70 0 44 1;
